<svg width="14" height="15" viewBox="0 0 14 15" fill="none" xmlns="http://www.w3.org/2000/svg">
<path d="M11.6667 5.75H6.41667C5.77233 5.75 5.25 6.27233 5.25 6.91667V12.1667C5.25 12.811 5.77233 13.3333 6.41667 13.3333H11.6667C12.311 13.3333 12.8333 12.811 12.8333 12.1667V6.91667C12.8333 6.27233 12.311 5.75 11.6667 5.75Z" stroke="#1E1E1E" stroke-linecap="round" stroke-linejoin="round"/>
<path d="M2.91699 9.24996H2.33366C2.02424 9.24996 1.72749 9.12704 1.5087 8.90825C1.28991 8.68946 1.16699 8.39271 1.16699 8.08329V2.83329C1.16699 2.52387 1.28991 2.22713 1.5087 2.00833C1.72749 1.78954 2.02424 1.66663 2.33366 1.66663H7.58366C7.89308 1.66663 8.18982 1.78954 8.40862 2.00833C8.62741 2.22713 8.75033 2.52387 8.75033 2.83329V3.41663" stroke="#1E1E1E" stroke-linecap="round" stroke-linejoin="round"/>
</svg>
