<svg id="discord" width="24" height="25" viewBox="0 0 24 25" fill="none" xmlns="http://www.w3.org/2000/svg">
<path d="M8.54697 15.9279C9.80656 15.9279 10.8322 14.7943 10.8322 13.4027C10.8322 12.0112 9.80656 10.8776 8.54697 10.8776C7.28738 10.8776 6.26172 12.0082 6.26172 13.4027C6.26172 14.7973 7.28738 15.9279 8.54697 15.9279ZM8.54697 12.0772C9.14678 12.0772 9.63262 12.677 9.63262 13.4027C9.63262 14.1285 9.14678 14.7283 8.54697 14.7283C7.94717 14.7283 7.46133 14.1285 7.46133 13.4027C7.46133 12.677 7.95017 12.0772 8.54697 12.0772Z" fill="#252525"/>
<path d="M3.58025 20.2165C4.76375 20.7173 6.0097 21.0553 7.28404 21.2212C7.4054 21.2342 7.52785 21.2099 7.63502 21.1515C7.7422 21.0931 7.829 21.0034 7.88384 20.8943L8.80454 19.0709C10.9249 19.4028 13.0841 19.4028 15.2045 19.0709L16.1252 20.8943C16.175 20.9932 16.2513 21.0764 16.3455 21.1347C16.4397 21.1929 16.5482 21.2239 16.659 21.2242H16.719C17.9933 21.0583 19.2393 20.7203 20.4228 20.2195C21.7159 19.6599 22.8821 18.8437 23.8506 17.8203C23.9044 17.7592 23.9451 17.6878 23.9704 17.6105C23.9956 17.5332 24.0049 17.4515 23.9976 17.3705C23.9976 17.2895 23.8236 15.3521 22.858 11.4984C22.3509 9.51111 21.6352 7.58301 20.7227 5.74627C20.6734 5.65175 20.6 5.57204 20.5097 5.51534C19.6061 4.98128 18.6542 4.53345 17.6667 4.17778C15.8672 3.518 14.9855 3.5 14.8926 3.5C14.7415 3.49952 14.5957 3.55608 14.4845 3.65839C14.3733 3.7607 14.3048 3.9012 14.2928 4.05182L14.1818 5.45836C13.684 5.41338 12.9192 5.36239 12.0015 5.36239C11.0838 5.36239 10.319 5.41338 9.82121 5.45836L9.71025 4.05182C9.69816 3.9012 9.62967 3.7607 9.51847 3.65839C9.40726 3.55608 9.26155 3.49952 9.11044 3.5C9.01747 3.5 8.14776 3.518 6.33635 4.17778C5.34879 4.53345 4.3969 4.98128 3.49328 5.51534C3.40305 5.57204 3.32955 5.65175 3.28035 5.74627C2.3678 7.58301 1.65205 9.51111 1.14504 11.4984C0.179358 15.3461 0.00241613 17.2835 0.00241613 17.3645C-0.00487886 17.4455 0.00438689 17.5272 0.0296499 17.6045C0.0549129 17.6818 0.095645 17.7532 0.149368 17.8143C1.11854 18.8391 2.28576 19.6564 3.58025 20.2165ZM2.30866 11.7833C2.78181 9.94262 3.4389 8.1542 4.27002 6.44504C5.06138 5.99285 5.89017 5.60956 6.74722 5.29942C7.33305 5.07818 7.93451 4.90075 8.54663 4.76859L8.61561 5.6683C7.2239 6.01597 5.90421 6.60577 4.71688 7.41073C4.61817 7.48857 4.54641 7.59546 4.51174 7.71629C4.47708 7.83713 4.48125 7.96581 4.52368 8.08414C4.56611 8.20247 4.64464 8.30449 4.74819 8.37577C4.85174 8.44704 4.97507 8.48399 5.10075 8.48138C5.22678 8.4812 5.34955 8.44132 5.45164 8.36741C7.03212 7.21579 9.21241 6.74194 9.37436 6.70596C11.1201 6.50605 12.8829 6.50605 14.6286 6.70596C14.7966 6.74194 16.9649 7.21579 18.5514 8.36741C18.6534 8.44132 18.7762 8.4812 18.9022 8.48138C19.0292 8.48183 19.153 8.442 19.2559 8.36762C19.3587 8.29325 19.4353 8.18815 19.4747 8.06747C19.514 7.94678 19.514 7.81673 19.4748 7.69602C19.4355 7.57531 19.3589 7.47017 19.2561 7.39573C18.0688 6.59077 16.7491 6.00097 15.3574 5.6533L15.4264 4.77159C16.044 4.90018 16.6506 5.07666 17.2408 5.29942C18.0981 5.6089 18.927 5.99221 19.718 6.44504C20.5482 8.15459 21.2052 9.94292 21.6793 11.7833C22.1476 13.5664 22.5081 15.3761 22.759 17.2025C21.9456 18.0048 20.9922 18.6512 19.9459 19.1099C18.9935 19.5037 18.0009 19.7923 16.9859 19.9706L16.3861 18.798C17.8143 18.4114 19.1395 17.714 20.2668 16.7557C20.3259 16.7027 20.3739 16.6386 20.4082 16.5671C20.4426 16.4955 20.4624 16.4179 20.4668 16.3387C20.4711 16.2595 20.4597 16.1802 20.4334 16.1053C20.4071 16.0305 20.3663 15.9615 20.3133 15.9025C20.2603 15.8434 20.1962 15.7953 20.1247 15.761C20.0531 15.7267 19.9755 15.7068 19.8963 15.7025C19.8171 15.6982 19.7378 15.7095 19.6629 15.7359C19.5881 15.7622 19.5191 15.803 19.4601 15.856C17.8466 17.3225 15.4414 17.7933 15.4174 17.7993H15.3994C14.2782 18.0093 13.1392 18.1097 11.9985 18.0992C10.8578 18.1097 9.71884 18.0093 8.59761 17.7993H8.57662C8.55263 17.7993 6.15941 17.3345 4.53694 15.859C4.47786 15.806 4.40893 15.7652 4.33408 15.7388C4.25923 15.7125 4.17993 15.7012 4.1007 15.7055C4.02147 15.7098 3.94387 15.7297 3.87232 15.764C3.80077 15.7983 3.73669 15.8464 3.68372 15.9055C3.63074 15.9645 3.58993 16.0335 3.56359 16.1083C3.53726 16.1832 3.52593 16.2625 3.53025 16.3417C3.53457 16.4209 3.55444 16.4985 3.58875 16.5701C3.62306 16.6416 3.67112 16.7057 3.7302 16.7587C4.8523 17.7147 6.17108 18.4119 7.59294 18.801L6.99313 19.9736C5.97791 19.796 4.98528 19.5074 4.0331 19.1129C2.98663 18.6532 2.0332 18.0057 1.22002 17.2025C1.47355 15.3759 1.83709 13.5662 2.30866 11.7833Z" fill="#252525"/>
<path d="M15.4503 15.9279C16.7099 15.9279 17.7355 14.7943 17.7355 13.4027C17.7355 12.0112 16.7099 10.8776 15.4503 10.8776C14.1907 10.8776 13.165 12.0082 13.165 13.4027C13.165 14.7973 14.1907 15.9279 15.4503 15.9279ZM15.4503 12.0772C16.0501 12.0772 16.5359 12.677 16.5359 13.4027C16.5359 14.1285 16.0471 14.7283 15.4503 14.7283C14.8535 14.7283 14.3646 14.1285 14.3646 13.4027C14.3646 12.677 14.8505 12.0772 15.4503 12.0772Z" fill="#252525"/>
</svg>
