<svg width="40" height="40" viewBox="0 0 40 40" fill="none" xmlns="http://www.w3.org/2000/svg">
<path fill-rule="evenodd" clip-rule="evenodd" d="M32.2912 25.1717C34.5085 19.9032 33.1214 13.8074 28.8427 10.0171C24.564 6.22679 18.3454 5.58505 13.3828 8.42169L11.7295 5.52668C16.8768 2.5848 23.1997 2.60003 28.3328 5.56668C35.8162 9.88668 38.6828 19.1367 35.1945 26.85L37.4312 28.14L30.4895 31.83L30.2145 23.9734L32.2912 25.1717H32.2912ZM7.70807 14.8284C5.49071 20.0969 6.87781 26.1926 11.1565 29.9829C15.4353 33.7733 21.6538 34.415 26.6164 31.5784L28.2697 34.4734C23.1224 37.4152 16.7995 37.4 11.6664 34.4334C4.18307 30.1134 1.31641 20.8634 4.80474 13.15L2.56641 11.8617L9.50807 8.17169L9.78307 16.0284L7.70641 14.83L7.70807 14.8284ZM14.1667 23.3334H23.3333C23.7936 23.3334 24.1667 22.9603 24.1667 22.5C24.1667 22.0398 23.7936 21.6667 23.3333 21.6667H16.6667C15.1781 21.6667 13.8025 20.8725 13.0582 19.5834C12.3139 18.2942 12.3139 16.7059 13.0582 15.4167C13.8025 14.1275 15.1781 13.3334 16.6667 13.3334H18.3333V11.6667H21.6667V13.3334H25.8333V16.6667H16.6667C16.2064 16.6667 15.8333 17.0398 15.8333 17.5C15.8333 17.9603 16.2064 18.3334 16.6667 18.3334H23.3333C24.8219 18.3334 26.1975 19.1275 26.9418 20.4167C27.6861 21.7059 27.6861 23.2942 26.9418 24.5834C26.1975 25.8725 24.8219 26.6667 23.3333 26.6667H21.6667V28.3334H18.3333V26.6667H14.1667V23.3334Z" fill="#9599AD"/>
</svg>
