<svg width="100" height="100" viewBox="0 0 100 100" fill="none" xmlns="http://www.w3.org/2000/svg">
<path d="M50 100C77.6142 100 100 77.6142 100 50C100 22.3858 77.6142 0 50 0C22.3858 0 0 22.3858 0 50C0 77.6142 22.3858 100 50 100Z" fill="#DC3545"/>
<path d="M67.8667 63.6L36.4 32.1333C35.2218 30.9551 33.3115 30.9551 32.1333 32.1333C30.9551 33.3115 30.9551 35.2218 32.1333 36.4L63.6 67.8667C64.7782 69.0449 66.6884 69.0449 67.8667 67.8667C69.0449 66.6884 69.0449 64.7782 67.8667 63.6Z" fill="white"/>
<path d="M36.4001 67.8667L67.8667 36.4C69.0449 35.2218 69.0449 33.3115 67.8667 32.1333C66.6885 30.9551 64.7783 30.9551 63.6001 32.1333L32.1334 63.6C30.9552 64.7782 30.9552 66.6884 32.1334 67.8667C33.3116 69.0449 35.2219 69.0449 36.4001 67.8667Z" fill="white"/>
</svg>
