<svg width="14" height="14" viewBox="0 0 14 14" fill="none" xmlns="http://www.w3.org/2000/svg">
<path d="M12.8931 2.07333C12.5526 1.73267 12.1483 1.46243 11.7033 1.27805C11.2584 1.09368 10.7814 0.998779 10.2998 0.998779C9.8181 0.998779 9.34116 1.09368 8.89618 1.27805C8.45121 1.46243 8.04692 1.73267 7.70642 2.07333L6.99975 2.78L6.29309 2.07333C5.60529 1.38553 4.67244 0.999136 3.69975 0.999136C2.72706 0.999136 1.79422 1.38553 1.10642 2.07333C0.418626 2.76112 0.0322266 3.69397 0.0322266 4.66666C0.0322266 5.63935 0.418626 6.5722 1.10642 7.25999L1.81309 7.96666L6.99975 13.1533L12.1864 7.96666L12.8931 7.25999C13.2337 6.91949 13.504 6.5152 13.6884 6.07023C13.8727 5.62526 13.9676 5.14832 13.9676 4.66666C13.9676 4.185 13.8727 3.70806 13.6884 3.26309C13.504 2.81812 13.2337 2.41383 12.8931 2.07333Z" fill="#FF0000"/>
</svg>
