<svg width="24" height="25" viewBox="0 0 24 25" fill="none" xmlns="http://www.w3.org/2000/svg">
<path d="M17 2.5H7C4.23858 2.5 2 4.73858 2 7.5V17.5C2 20.2614 4.23858 22.5 7 22.5H17C19.7614 22.5 22 20.2614 22 17.5V7.5C22 4.73858 19.7614 2.5 17 2.5Z" stroke="#1E1E1E" stroke-linecap="round" stroke-linejoin="round"/>
<path d="M15.9997 11.87C16.1231 12.7022 15.981 13.5522 15.5935 14.299C15.206 15.0458 14.5929 15.6514 13.8413 16.0297C13.0898 16.4079 12.2382 16.5396 11.4075 16.4059C10.5768 16.2723 9.80947 15.8801 9.21455 15.2852C8.61962 14.6902 8.22744 13.9229 8.09377 13.0922C7.96011 12.2615 8.09177 11.4099 8.47003 10.6584C8.84829 9.90685 9.45389 9.29374 10.2007 8.90624C10.9475 8.51874 11.7975 8.37658 12.6297 8.5C13.4786 8.62588 14.2646 9.02146 14.8714 9.6283C15.4782 10.2351 15.8738 11.0211 15.9997 11.87Z" stroke="#1E1E1E" stroke-linecap="round" stroke-linejoin="round"/>
<path d="M17.5 7H17.51" stroke="#1E1E1E" stroke-linecap="round" stroke-linejoin="round"/>
</svg>
