<svg width="25" height="25" viewBox="0 0 25 25" fill="none" xmlns="http://www.w3.org/2000/svg">
<path d="M12.5 4.5C14.154 4.5 15.5 5.846 15.5 7.5H17.5C17.5 4.743 15.257 2.5 12.5 2.5C9.743 2.5 7.5 4.743 7.5 7.5V9.5H6.5C5.397 9.5 4.5 10.397 4.5 11.5V20.5C4.5 21.603 5.397 22.5 6.5 22.5H18.5C19.603 22.5 20.5 21.603 20.5 20.5V11.5C20.5 10.397 19.603 9.5 18.5 9.5H9.5V7.5C9.5 5.846 10.846 4.5 12.5 4.5ZM18.502 20.5H13.5V18.222C14.095 17.875 14.5 17.237 14.5 16.5C14.5 15.397 13.603 14.5 12.5 14.5C11.397 14.5 10.5 15.397 10.5 16.5C10.5 17.236 10.905 17.875 11.5 18.222V20.5H6.5V11.5H18.5L18.502 20.5Z" fill="#5B2B9B"/>
</svg>
