<svg width="22" height="22" viewBox="0 0 22 22" fill="none" xmlns="http://www.w3.org/2000/svg">
<path d="M20.1665 11L15.5832 7.33332V10.0833L7.33317 10.0833V11.9167L15.5832 11.9167V14.6667L20.1665 11Z" fill="#fff"/>
<path d="M10.0824 19.2509C11.1663 19.2539 12.2401 19.0418 13.2415 18.6269C14.2429 18.2119 15.1519 17.6024 15.9161 16.8337L14.6199 15.5375C13.4081 16.7493 11.7966 17.4176 10.0824 17.4176C8.36824 17.4176 6.75674 16.7493 5.54491 15.5375C4.33308 14.3257 3.66483 12.7142 3.66483 11C3.66483 9.28583 4.33308 7.67433 5.54491 6.4625C6.75674 5.25066 8.36824 4.58242 10.0824 4.58242C11.7966 4.58242 13.4081 5.25066 14.6199 6.4625L15.9161 5.16633C14.3587 3.608 12.287 2.74908 10.0824 2.74908C7.87783 2.74908 5.80616 3.608 4.24874 5.16633C2.69041 6.72375 1.83149 8.79541 1.83149 11C1.83149 13.2046 2.69041 15.2762 4.24874 16.8337C5.01288 17.6024 5.92197 18.2119 6.92334 18.6269C7.92472 19.0418 8.99848 19.2539 10.0824 19.2509V19.2509Z" fill="#fff"/>
</svg>
