<svg width="100" height="100" viewBox="0 0 100 100" fill="none" xmlns="http://www.w3.org/2000/svg">
<path d="M93.75 50C97.2018 50 100.04 52.8091 99.6099 56.2339C98.5627 64.5679 95.4273 72.5397 90.4509 79.3893C84.2444 87.9316 75.493 94.2899 65.4509 97.5528C55.4087 100.816 44.5913 100.816 34.5491 97.5528C24.507 94.2899 15.7556 87.9316 9.54915 79.3893C3.34275 70.8469 -9.23094e-07 60.559 0 50C9.23094e-07 39.441 3.34275 29.1531 9.54915 20.6107C15.7556 12.0684 24.507 5.71007 34.5492 2.44717C42.6013 -0.169124 51.1518 -0.687589 59.4015 0.891777C62.7917 1.54082 64.5862 5.10844 63.5195 8.39128C62.4528 11.6741 58.9251 13.4143 55.5108 12.9071C49.8051 12.0594 43.9512 12.5355 38.4119 14.3354C30.8802 16.7826 24.3167 21.5513 19.6619 27.958C15.0071 34.3648 12.5 42.0808 12.5 50C12.5 57.9192 15.0071 65.6352 19.6619 72.0419C24.3167 78.4487 30.8802 83.2174 38.4119 85.6646C45.9435 88.1118 54.0565 88.1118 61.5881 85.6646C69.1198 83.2174 75.6833 78.4487 80.3381 72.0419C83.7616 67.3299 86.0234 61.9097 86.9804 56.2213C87.5531 52.8173 90.2982 50 93.75 50Z" fill="url(#paint0_angular_264_10166)"/>
<defs>
<radialGradient id="paint0_angular_264_10166" cx="0" cy="0" r="1" gradientUnits="userSpaceOnUse" gradientTransform="translate(50 50) rotate(90) scale(50)">
<stop offset="0.250044" stop-color="#E57F8C"/>
<stop offset="0.547963" stop-color="#F8CD91"/>
<stop offset="0.769232" stop-color="#40288A"/>
<stop offset="0.992826" stop-color="#5B2B9B"/>
</radialGradient>
</defs>
</svg>
