<svg width="12" height="13" viewBox="0 0 12 13" fill="none" xmlns="http://www.w3.org/2000/svg">
<path d="M9.60078 4.1C10.5949 4.1 11.4008 3.29411 11.4008 2.3C11.4008 1.30589 10.5949 0.5 9.60078 0.5C8.60667 0.5 7.80078 1.30589 7.80078 2.3C7.80078 3.29411 8.60667 4.1 9.60078 4.1Z" stroke="#1E1E1E" stroke-linecap="round" stroke-linejoin="round"/>
<path d="M2.39961 8.29995C3.39372 8.29995 4.19961 7.49406 4.19961 6.49995C4.19961 5.50584 3.39372 4.69995 2.39961 4.69995C1.4055 4.69995 0.599609 5.50584 0.599609 6.49995C0.599609 7.49406 1.4055 8.29995 2.39961 8.29995Z" stroke="#1E1E1E" stroke-linecap="round" stroke-linejoin="round"/>
<path d="M9.60078 12.5C10.5949 12.5 11.4008 11.6941 11.4008 10.7C11.4008 9.70591 10.5949 8.90002 9.60078 8.90002C8.60667 8.90002 7.80078 9.70591 7.80078 10.7C7.80078 11.6941 8.60667 12.5 9.60078 12.5Z" stroke="#1E1E1E" stroke-linecap="round" stroke-linejoin="round"/>
<path d="M3.95508 7.40601L8.05308 9.794" stroke="#1E1E1E" stroke-linecap="round" stroke-linejoin="round"/>
<path d="M8.04708 3.20605L3.95508 5.59405" stroke="#1E1E1E" stroke-linecap="round" stroke-linejoin="round"/>
</svg>
