<svg width="100" height="100" viewBox="0 0 100 100" fill="none" xmlns="http://www.w3.org/2000/svg">
<path d="M50 100C77.6142 100 100 77.6142 100 50C100 22.3858 77.6142 0 50 0C22.3858 0 0 22.3858 0 50C0 77.6142 22.3858 100 50 100Z" fill="#28A745"/>
<path d="M45.0453 69.0735C43.9204 69.0754 42.8254 68.7115 41.9255 68.0367L41.8697 67.9949L30.119 59.006C29.5748 58.5887 29.1181 58.0684 28.7749 57.4747C28.4318 56.8809 28.209 56.2255 28.1192 55.5456C28.0294 54.8658 28.0744 54.1749 28.2516 53.5124C28.4288 52.85 28.7347 52.2289 29.1519 51.6847C29.5692 51.1404 30.0895 50.6837 30.6832 50.3406C31.277 49.9975 31.9325 49.7746 32.6123 49.6848C33.2922 49.595 33.983 49.64 34.6455 49.8172C35.308 49.9944 35.929 50.3004 36.4732 50.7176L44.0844 56.5542L62.0699 33.0901C62.4869 32.5461 63.0071 32.0896 63.6006 31.7466C64.194 31.4036 64.8493 31.1809 65.5288 31.0911C66.2084 31.0013 66.899 31.0463 67.5612 31.2234C68.2234 31.4006 68.8442 31.7064 69.3882 32.1234L69.3897 32.1246L69.2781 32.2796L69.3927 32.1246C70.4902 32.9681 71.2082 34.2125 71.3893 35.5848C71.5703 36.9571 71.1995 38.3451 70.3582 39.4443L49.2033 67.0309C48.7139 67.6666 48.0846 68.1809 47.3643 68.5341C46.644 68.8872 45.8521 69.0697 45.0499 69.0674L45.0453 69.0735Z" fill="white"/>
</svg>
