<svg width="24" height="24" viewBox="0 0 24 24" fill="none" xmlns="http://www.w3.org/2000/svg">
<path d="M12 4.875C9.43548 4.875 7.35484 6.89062 7.35484 9.375C7.35484 11.8594 9.43548 13.875 12 13.875C14.5645 13.875 16.6452 11.8594 16.6452 9.375C16.6452 6.89062 14.5645 4.875 12 4.875ZM12 11.625C10.7177 11.625 9.67742 10.6172 9.67742 9.375C9.67742 8.13281 10.7177 7.125 12 7.125C13.2823 7.125 14.3226 8.13281 14.3226 9.375C14.3226 10.6172 13.2823 11.625 12 11.625ZM12 0.375C5.37097 0.375 0 5.57812 0 12C0 18.4219 5.37097 23.625 12 23.625C18.629 23.625 24 18.4219 24 12C24 5.57812 18.629 0.375 12 0.375ZM12 21.375C9.59516 21.375 7.39839 20.5172 5.70484 19.1063C6.42581 18.0281 7.65968 17.2969 9.07258 17.2547C10.079 17.5547 11.0371 17.7047 12 17.7047C12.9629 17.7047 13.921 17.5594 14.9274 17.2547C16.3403 17.3016 17.5742 18.0281 18.2952 19.1063C16.6016 20.5172 14.4048 21.375 12 21.375ZM19.8726 17.4328C18.6919 15.9609 16.8677 15 14.7871 15C14.2935 15 13.529 15.45 12 15.45C10.4758 15.45 9.70645 15 9.2129 15C7.1371 15 5.3129 15.9609 4.12742 17.4328C2.99516 15.9 2.32258 14.025 2.32258 12C2.32258 6.82969 6.6629 2.625 12 2.625C17.3371 2.625 21.6774 6.82969 21.6774 12C21.6774 14.025 21.0048 15.9 19.8726 17.4328Z" fill="#B1B1B1"/>
</svg>
