<svg width="18" height="18" viewBox="0 0 18 18" fill="none" xmlns="http://www.w3.org/2000/svg">
<path d="M6 9.375L7.875 11.25L12 7.125" stroke="#4589FF" stroke-linecap="square"/>
<path d="M9 16.5C9.92722 16.5 10.7234 15.9391 11.0679 15.1382C11.1896 14.8551 11.5918 14.6885 11.8781 14.8026C12.6881 15.1254 13.6477 14.959 14.3033 14.3033C14.9589 13.6477 15.1253 12.6881 14.8026 11.8782C14.6885 11.5918 14.8551 11.1896 15.1382 11.0679C15.9391 10.7234 16.5 9.92722 16.5 9C16.5 8.07277 15.9391 7.2766 15.1382 6.93211C14.8551 6.81034 14.6885 6.40814 14.8026 6.12184C15.1254 5.3119 14.959 4.35233 14.3033 3.6967C13.6477 3.04108 12.6881 2.87464 11.8782 3.19741C11.5918 3.3115 11.1896 3.1449 11.0679 2.86177C10.7234 2.06084 9.92722 1.5 9 1.5C8.07277 1.5 7.2766 2.06083 6.93211 2.86177C6.81034 3.14488 6.40814 3.31148 6.12184 3.19739C5.3119 2.87463 4.35233 3.04105 3.6967 3.69668C3.04108 4.35231 2.87464 5.31188 3.19741 6.12182C3.3115 6.40813 3.1449 6.81034 2.86177 6.93211C2.06084 7.2766 1.5 8.07277 1.5 9C1.5 9.92722 2.06083 10.7234 2.86177 11.0679C3.14488 11.1896 3.31148 11.5918 3.19739 11.8781C2.87463 12.6881 3.04105 13.6477 3.69668 14.3033C4.35231 14.9589 5.31188 15.1253 6.12182 14.8026C6.40812 14.6885 6.81034 14.8551 6.93211 15.1382C7.2766 15.9391 8.07277 16.5 9 16.5Z" stroke="#4589FF" stroke-linecap="square"/>
</svg>
