<svg width="24" height="24" viewBox="0 0 24 24" fill="none" xmlns="http://www.w3.org/2000/svg">
<path d="M4 11H10C10.2652 11 10.5196 10.8946 10.7071 10.7071C10.8946 10.5196 11 10.2652 11 10V4C11 3.73478 10.8946 3.48043 10.7071 3.29289C10.5196 3.10536 10.2652 3 10 3H4C3.73478 3 3.48043 3.10536 3.29289 3.29289C3.10536 3.48043 3 3.73478 3 4V10C3 10.2652 3.10536 10.5196 3.29289 10.7071C3.48043 10.8946 3.73478 11 4 11ZM4 21H10C10.2652 21 10.5196 20.8946 10.7071 20.7071C10.8946 20.5196 11 20.2652 11 20V14C11 13.7348 10.8946 13.4804 10.7071 13.2929C10.5196 13.1054 10.2652 13 10 13H4C3.73478 13 3.48043 13.1054 3.29289 13.2929C3.10536 13.4804 3 13.7348 3 14V20C3 20.2652 3.10536 20.5196 3.29289 20.7071C3.48043 20.8946 3.73478 21 4 21ZM14 21H20C20.2652 21 20.5196 20.8946 20.7071 20.7071C20.8946 20.5196 21 20.2652 21 20V14C21 13.7348 20.8946 13.4804 20.7071 13.2929C20.5196 13.1054 20.2652 13 20 13H14C13.7348 13 13.4804 13.1054 13.2929 13.2929C13.1054 13.4804 13 13.7348 13 14V20C13 20.2652 13.1054 20.5196 13.2929 20.7071C13.4804 20.8946 13.7348 21 14 21ZM21.293 6.293L17.707 2.707C17.6142 2.61405 17.504 2.54032 17.3827 2.49001C17.2614 2.4397 17.1313 2.4138 17 2.4138C16.8687 2.4138 16.7386 2.4397 16.6173 2.49001C16.496 2.54032 16.3858 2.61405 16.293 2.707L12.707 6.293C12.6141 6.38579 12.5403 6.49599 12.49 6.61731C12.4397 6.73862 12.4138 6.86867 12.4138 7C12.4138 7.13133 12.4397 7.26138 12.49 7.38269C12.5403 7.50401 12.6141 7.61421 12.707 7.707L16.293 11.293C16.3858 11.3859 16.496 11.4597 16.6173 11.51C16.7386 11.5603 16.8687 11.5862 17 11.5862C17.1313 11.5862 17.2614 11.5603 17.3827 11.51C17.504 11.4597 17.6142 11.3859 17.707 11.293L21.293 7.707C21.3859 7.61421 21.4597 7.50401 21.51 7.38269C21.5603 7.26138 21.5862 7.13133 21.5862 7C21.5862 6.86867 21.5603 6.73862 21.51 6.61731C21.4597 6.49599 21.3859 6.38579 21.293 6.293Z" fill="#5B2B9B"/>
</svg>
